<svg width="1080" height="1080" viewBox="0 0 1080 1080" fill="none" xmlns="http://www.w3.org/2000/svg">
<rect width="1080" height="1080" fill="#DCCCC3"/>
<g filter="url(#filter0_d_1_2)">
<path d="M325.288 715.123V764H316.231V715.123H325.288ZM338.376 764V715.123H347.776L364.353 752.208L380.588 715.123H389.646V764H381.272V729.957L368.01 764H360.286L346.75 729.957V764H338.376ZM410.39 739.425C410.39 750.795 415.437 756.48 425.532 756.48C435.376 756.48 440.297 750.795 440.297 739.425C440.297 728.237 435.376 722.643 425.532 722.643C415.437 722.643 410.39 728.237 410.39 739.425ZM400.991 739.63C400.991 723.064 409.171 714.781 425.532 714.781C441.642 714.781 449.697 723.064 449.697 739.63C449.697 756.104 441.642 764.342 425.532 764.342C409.9 764.342 401.72 756.104 400.991 739.63ZM461.076 764V715.123H483.976C493.273 715.123 497.922 718.917 497.922 726.505C497.922 732.065 494.891 736.041 488.83 738.434C495.301 739.641 498.537 743.344 498.537 749.542C498.537 759.181 493.444 764 483.259 764H461.076ZM482.883 756.139C486.893 756.139 488.898 754.088 488.898 749.986C488.898 744.905 485.902 742.364 479.909 742.364H477.175V736.52C484.694 735.266 488.454 732.122 488.454 727.086C488.454 724.352 486.768 722.984 483.395 722.984H470.134V756.139H482.883ZM518.119 715.123V764H509.062V715.123H518.119ZM540.265 715.123V756.139H559.679V764H531.207V715.123H540.265ZM580.116 715.123V756.139H599.53V764H571.058V715.123H580.116ZM644.371 715.123V722.916H619.898V735.221H643.209V743.321H619.796V756.139H644.849V764H610.909V715.123H644.371Z" fill="#474242"/>
</g>
<g filter="url(#filter1_d_1_2)">
<path d="M668.196 739.425C668.196 750.795 673.243 756.48 683.337 756.48C693.181 756.48 698.103 750.795 698.103 739.425C698.103 728.237 693.181 722.643 683.337 722.643C673.243 722.643 668.196 728.237 668.196 739.425ZM658.796 739.63C658.796 723.064 666.977 714.781 683.337 714.781C699.447 714.781 707.502 723.064 707.502 739.63C707.502 756.104 699.447 764.342 683.337 764.342C667.706 764.342 659.525 756.104 658.796 739.63ZM718.881 764V715.123H727.939L753.745 750.738V715.123H762.461V764H753.403L727.597 727.633V764H718.881Z" fill="#937F74"/>
</g>
<g filter="url(#filter2_d_1_2)">
<path d="M333.245 783.94L326.204 800H323.003L316.265 783.94H319.802L324.778 796.238L329.741 783.94H333.245ZM346.154 783.94V786.501H338.113V790.544H345.773V793.206H338.08V797.417H346.312V800H335.16V783.94H346.154ZM349.293 800V783.94H352.269L360.748 795.643V783.94H363.612V800H360.636L352.157 788.051V800H349.293ZM373.511 797.417C376.843 797.417 378.509 795.455 378.509 791.532C378.509 788.193 376.843 786.523 373.511 786.523H370.198V797.417H373.511ZM367.222 800V783.94H373.511C378.827 783.94 381.485 786.471 381.485 791.532C381.485 797.177 378.827 800 373.511 800H367.222ZM385.904 800H382.849L389.666 783.94H392.867L399.83 800H396.629L394.799 795.62H389.464L390.486 793.037H393.72L391.194 787.006L385.904 800ZM418.304 783.94V786.501H410.263V790.544H417.922V793.206H410.229V797.417H418.461V800H407.309V783.94H418.304ZM428.377 800H425.322L432.139 783.94H435.34L442.303 800H439.102L437.271 795.62H431.937L432.959 793.037H436.193L433.666 787.006L428.377 800ZM447.474 783.94V797.417H453.853V800H444.498V783.94H447.474ZM456.902 793.688V783.94H459.878V793.688C459.878 796.249 461.188 797.529 463.808 797.529C466.429 797.529 467.739 796.249 467.739 793.688V783.94H470.715V793.688C470.715 797.971 468.413 800.112 463.808 800.112C459.204 800.112 456.902 797.971 456.902 793.688ZM487.117 799.259C485.822 799.828 484.201 800.112 482.254 800.112C476.587 800.112 473.753 797.323 473.753 791.746C473.753 786.467 476.635 783.828 482.4 783.828C484.16 783.828 485.732 784.09 487.117 784.614V787.31C485.732 786.711 484.235 786.411 482.625 786.411C478.769 786.411 476.841 788.189 476.841 791.746C476.841 795.601 478.661 797.529 482.299 797.529C482.838 797.529 483.452 797.439 484.141 797.26V792.588H487.117V799.259ZM490.155 793.688V783.94H493.131V793.688C493.131 796.249 494.441 797.529 497.061 797.529C499.682 797.529 500.992 796.249 500.992 793.688V783.94H503.968V793.688C503.968 797.971 501.666 800.112 497.061 800.112C492.457 800.112 490.155 797.971 490.155 793.688ZM518.562 783.94V786.501H510.521V790.544H518.18V793.206H510.487V797.417H518.719V800H507.567V783.94H518.562ZM524.677 783.94V797.417H531.056V800H521.701V783.94H524.677ZM545.677 797.417C549.009 797.417 550.675 795.455 550.675 791.532C550.675 788.193 549.009 786.523 545.677 786.523H542.364V797.417H545.677ZM539.388 800V783.94H545.677C550.993 783.94 553.651 786.471 553.651 791.532C553.651 797.177 550.993 800 545.677 800H539.388ZM567.414 783.94V786.501H559.373V790.544H567.032V793.206H559.339V797.417H567.571V800H556.419V783.94H567.414ZM578.812 783.94V800H575.836V783.94H578.812ZM582.422 800V783.94H585.511L590.958 796.125L596.292 783.94H599.268V800H596.517V788.814L592.159 800H589.621L585.174 788.814V800H582.422ZM605.394 791.925C605.394 795.661 607.053 797.529 610.369 797.529C613.604 797.529 615.221 795.661 615.221 791.925C615.221 788.249 613.604 786.411 610.369 786.411C607.053 786.411 605.394 788.249 605.394 791.925ZM602.306 791.993C602.306 786.55 604.994 783.828 610.369 783.828C615.663 783.828 618.309 786.55 618.309 791.993C618.309 797.406 615.663 800.112 610.369 800.112C605.233 800.112 602.545 797.406 602.306 791.993ZM610.19 779.673H613.772L611.088 782.582H608.572L610.19 779.673ZM636.654 783.94L629.612 800H626.412L619.673 783.94H623.211L628.186 796.238L633.15 783.94H636.654ZM649.563 783.94V786.501H641.522V790.544H649.181V793.206H641.488V797.417H649.72V800H638.569V783.94H649.563ZM655.678 783.94V800H652.702V783.94H655.678ZM659.008 799.326V796.631C660.617 797.23 662.437 797.529 664.466 797.529C666.929 797.529 668.16 796.706 668.16 795.059C668.16 793.861 667.404 793.262 665.892 793.262H663.376C660.089 793.262 658.446 791.764 658.446 788.77C658.446 785.475 660.786 783.828 665.465 783.828C667.262 783.828 668.965 784.09 670.575 784.614V787.31C668.965 786.711 667.262 786.411 665.465 786.411C662.77 786.411 661.422 787.197 661.422 788.77C661.422 789.967 662.073 790.566 663.376 790.566H665.892C669.388 790.566 671.136 792.064 671.136 795.059C671.136 798.428 668.913 800.112 664.466 800.112C662.437 800.112 660.617 799.85 659.008 799.326ZM681.704 791.925C681.704 795.661 683.362 797.529 686.679 797.529C689.913 797.529 691.53 795.661 691.53 791.925C691.53 788.249 689.913 786.411 686.679 786.411C683.362 786.411 681.704 788.249 681.704 791.925ZM678.615 791.993C678.615 786.55 681.303 783.828 686.679 783.828C691.972 783.828 694.619 786.55 694.619 791.993C694.619 797.406 691.972 800.112 686.679 800.112C681.543 800.112 678.855 797.406 678.615 791.993ZM697.668 800V783.94H700.644L709.123 795.643V783.94H711.987V800H709.01L700.531 788.051V800H697.668ZM718.573 783.94V797.417H724.952V800H715.597V783.94H718.573ZM730.977 783.94V800H728.001V783.94H730.977ZM734.587 800V783.94H737.563L746.042 795.643V783.94H748.906V800H745.93L737.451 788.051V800H734.587ZM763.511 783.94V786.501H755.47V790.544H763.129V793.206H755.436V797.417H763.668V800H752.516V783.94H763.511Z" fill="#474242"/>
</g>
<g clip-path="url(#clip0_1_2)">
<path d="M399 404L508 341.5V661.5L413.5 673L399 404Z" fill="#937F74"/>
<g filter="url(#filter3_d_1_2)">
<path fill-rule="evenodd" clip-rule="evenodd" d="M518.619 316.706C513.486 314.993 508.043 314.411 502.664 315C497.285 315.589 492.097 317.335 487.456 320.119L410.206 366.469C404.653 369.801 400.058 374.514 396.867 380.149C393.677 385.784 392 392.149 392 398.625L391.933 650.608V655.277V658.277C391.933 658.277 391.933 658.277 391.933 687.777H692C692 650.513 692 687.777 692 650.513V401.513C691.995 393.648 689.518 385.983 684.918 379.604C680.318 373.224 673.829 368.452 666.369 365.963L518.619 316.706ZM654.5 650.513V401.513L523.25 357.788V650.513H654.5ZM485.75 364.875L429.5 398.625V650.513H485.75V364.875Z" fill="#474242"/>
</g>
</g>
<defs>
<filter id="filter0_d_1_2" x="312.231" y="714.781" width="336.619" height="57.5605" filterUnits="userSpaceOnUse" color-interpolation-filters="sRGB">
<feFlood flood-opacity="0" result="BackgroundImageFix"/>
<feColorMatrix in="SourceAlpha" type="matrix" values="0 0 0 0 0 0 0 0 0 0 0 0 0 0 0 0 0 0 127 0" result="hardAlpha"/>
<feOffset dy="4"/>
<feGaussianBlur stdDeviation="2"/>
<feComposite in2="hardAlpha" operator="out"/>
<feColorMatrix type="matrix" values="0 0 0 0 0 0 0 0 0 0 0 0 0 0 0 0 0 0 0.25 0"/>
<feBlend mode="normal" in2="BackgroundImageFix" result="effect1_dropShadow_1_2"/>
<feBlend mode="normal" in="SourceGraphic" in2="effect1_dropShadow_1_2" result="shape"/>
</filter>
<filter id="filter1_d_1_2" x="654.796" y="714.781" width="111.664" height="57.5605" filterUnits="userSpaceOnUse" color-interpolation-filters="sRGB">
<feFlood flood-opacity="0" result="BackgroundImageFix"/>
<feColorMatrix in="SourceAlpha" type="matrix" values="0 0 0 0 0 0 0 0 0 0 0 0 0 0 0 0 0 0 127 0" result="hardAlpha"/>
<feOffset dy="4"/>
<feGaussianBlur stdDeviation="2"/>
<feComposite in2="hardAlpha" operator="out"/>
<feColorMatrix type="matrix" values="0 0 0 0 0 0 0 0 0 0 0 0 0 0 0 0 0 0 0.25 0"/>
<feBlend mode="normal" in2="BackgroundImageFix" result="effect1_dropShadow_1_2"/>
<feBlend mode="normal" in="SourceGraphic" in2="effect1_dropShadow_1_2" result="shape"/>
</filter>
<filter id="filter2_d_1_2" x="312.265" y="779.673" width="455.403" height="28.4395" filterUnits="userSpaceOnUse" color-interpolation-filters="sRGB">
<feFlood flood-opacity="0" result="BackgroundImageFix"/>
<feColorMatrix in="SourceAlpha" type="matrix" values="0 0 0 0 0 0 0 0 0 0 0 0 0 0 0 0 0 0 127 0" result="hardAlpha"/>
<feOffset dy="4"/>
<feGaussianBlur stdDeviation="2"/>
<feComposite in2="hardAlpha" operator="out"/>
<feColorMatrix type="matrix" values="0 0 0 0 0 0 0 0 0 0 0 0 0 0 0 0 0 0 0.25 0"/>
<feBlend mode="normal" in2="BackgroundImageFix" result="effect1_dropShadow_1_2"/>
<feBlend mode="normal" in="SourceGraphic" in2="effect1_dropShadow_1_2" result="shape"/>
</filter>
<filter id="filter3_d_1_2" x="387.933" y="314.777" width="308.067" height="381" filterUnits="userSpaceOnUse" color-interpolation-filters="sRGB">
<feFlood flood-opacity="0" result="BackgroundImageFix"/>
<feColorMatrix in="SourceAlpha" type="matrix" values="0 0 0 0 0 0 0 0 0 0 0 0 0 0 0 0 0 0 127 0" result="hardAlpha"/>
<feOffset dy="4"/>
<feGaussianBlur stdDeviation="2"/>
<feComposite in2="hardAlpha" operator="out"/>
<feColorMatrix type="matrix" values="0 0 0 0 0 0 0 0 0 0 0 0 0 0 0 0 0 0 0.25 0"/>
<feBlend mode="normal" in2="BackgroundImageFix" result="effect1_dropShadow_1_2"/>
<feBlend mode="normal" in="SourceGraphic" in2="effect1_dropShadow_1_2" result="shape"/>
</filter>
<clipPath id="clip0_1_2">
<rect width="450" height="450" fill="white" transform="translate(314 276)"/>
</clipPath>
</defs>
</svg>
