<svg width="750" height="750" viewBox="0 0 750 750" fill="none" xmlns="http://www.w3.org/2000/svg">
<rect width="750" height="750" rx="375" fill="#DCCCC3"/>
<g filter="url(#filter0_d_30_2)">
<path d="M161.288 508.123V557H152.231V508.123H161.288ZM174.376 557V508.123H183.776L200.353 545.208L216.588 508.123H225.646V557H217.272V522.957L204.01 557H196.286L182.75 522.957V557H174.376ZM246.39 532.425C246.39 543.795 251.437 549.48 261.532 549.48C271.376 549.48 276.297 543.795 276.297 532.425C276.297 521.237 271.376 515.643 261.532 515.643C251.437 515.643 246.39 521.237 246.39 532.425ZM236.991 532.63C236.991 516.064 245.171 507.781 261.532 507.781C277.642 507.781 285.697 516.064 285.697 532.63C285.697 549.104 277.642 557.342 261.532 557.342C245.9 557.342 237.72 549.104 236.991 532.63ZM297.076 557V508.123H319.976C329.273 508.123 333.922 511.917 333.922 519.505C333.922 525.065 330.891 529.041 324.83 531.434C331.301 532.641 334.537 536.344 334.537 542.542C334.537 552.181 329.444 557 319.259 557H297.076ZM318.883 549.139C322.893 549.139 324.898 547.088 324.898 542.986C324.898 537.905 321.902 535.364 315.909 535.364H313.175V529.52C320.694 528.266 324.454 525.122 324.454 520.086C324.454 517.352 322.768 515.984 319.395 515.984H306.134V549.139H318.883ZM354.119 508.123V557H345.062V508.123H354.119ZM376.265 508.123V549.139H395.679V557H367.207V508.123H376.265ZM416.116 508.123V549.139H435.53V557H407.058V508.123H416.116ZM480.371 508.123V515.916H455.898V528.221H479.209V536.321H455.796V549.139H480.849V557H446.909V508.123H480.371Z" fill="#474242"/>
</g>
<g filter="url(#filter1_d_30_2)">
<path d="M504.196 532.425C504.196 543.795 509.243 549.48 519.337 549.48C529.181 549.48 534.103 543.795 534.103 532.425C534.103 521.237 529.181 515.643 519.337 515.643C509.243 515.643 504.196 521.237 504.196 532.425ZM494.796 532.63C494.796 516.064 502.977 507.781 519.337 507.781C535.447 507.781 543.502 516.064 543.502 532.63C543.502 549.104 535.447 557.342 519.337 557.342C503.706 557.342 495.525 549.104 494.796 532.63ZM554.881 557V508.123H563.939L589.745 543.738V508.123H598.461V557H589.403L563.597 520.633V557H554.881Z" fill="#937F74"/>
</g>
<g filter="url(#filter2_d_30_2)">
<path d="M169.245 576.94L162.204 593H159.003L152.265 576.94H155.802L160.778 589.238L165.741 576.94H169.245ZM182.154 576.94V579.501H174.113V583.544H181.773V586.206H174.08V590.417H182.312V593H171.16V576.94H182.154ZM185.293 593V576.94H188.269L196.748 588.643V576.94H199.612V593H196.636L188.157 581.051V593H185.293ZM209.511 590.417C212.843 590.417 214.509 588.455 214.509 584.532C214.509 581.193 212.843 579.523 209.511 579.523H206.198V590.417H209.511ZM203.222 593V576.94H209.511C214.827 576.94 217.485 579.471 217.485 584.532C217.485 590.177 214.827 593 209.511 593H203.222ZM221.904 593H218.849L225.666 576.94H228.867L235.83 593H232.629L230.799 588.62H225.464L226.486 586.037H229.72L227.194 580.006L221.904 593ZM254.304 576.94V579.501H246.263V583.544H253.922V586.206H246.229V590.417H254.461V593H243.309V576.94H254.304ZM264.377 593H261.322L268.139 576.94H271.34L278.303 593H275.102L273.271 588.62H267.937L268.959 586.037H272.193L269.666 580.006L264.377 593ZM283.474 576.94V590.417H289.853V593H280.498V576.94H283.474ZM292.902 586.688V576.94H295.878V586.688C295.878 589.249 297.188 590.529 299.808 590.529C302.429 590.529 303.739 589.249 303.739 586.688V576.94H306.715V586.688C306.715 590.971 304.413 593.112 299.808 593.112C295.204 593.112 292.902 590.971 292.902 586.688ZM323.117 592.259C321.822 592.828 320.201 593.112 318.254 593.112C312.587 593.112 309.753 590.323 309.753 584.746C309.753 579.467 312.635 576.828 318.4 576.828C320.16 576.828 321.732 577.09 323.117 577.614V580.31C321.732 579.711 320.235 579.411 318.625 579.411C314.769 579.411 312.841 581.189 312.841 584.746C312.841 588.601 314.661 590.529 318.299 590.529C318.838 590.529 319.452 590.439 320.141 590.26V585.588H323.117V592.259ZM326.155 586.688V576.94H329.131V586.688C329.131 589.249 330.441 590.529 333.061 590.529C335.682 590.529 336.992 589.249 336.992 586.688V576.94H339.968V586.688C339.968 590.971 337.666 593.112 333.061 593.112C328.457 593.112 326.155 590.971 326.155 586.688ZM354.562 576.94V579.501H346.521V583.544H354.18V586.206H346.487V590.417H354.719V593H343.567V576.94H354.562ZM360.677 576.94V590.417H367.056V593H357.701V576.94H360.677ZM381.677 590.417C385.009 590.417 386.675 588.455 386.675 584.532C386.675 581.193 385.009 579.523 381.677 579.523H378.364V590.417H381.677ZM375.388 593V576.94H381.677C386.993 576.94 389.651 579.471 389.651 584.532C389.651 590.177 386.993 593 381.677 593H375.388ZM403.414 576.94V579.501H395.373V583.544H403.032V586.206H395.339V590.417H403.571V593H392.419V576.94H403.414ZM414.812 576.94V593H411.836V576.94H414.812ZM418.422 593V576.94H421.511L426.958 589.125L432.292 576.94H435.268V593H432.517V581.814L428.159 593H425.621L421.174 581.814V593H418.422ZM441.394 584.925C441.394 588.661 443.053 590.529 446.369 590.529C449.604 590.529 451.221 588.661 451.221 584.925C451.221 581.249 449.604 579.411 446.369 579.411C443.053 579.411 441.394 581.249 441.394 584.925ZM438.306 584.993C438.306 579.55 440.994 576.828 446.369 576.828C451.663 576.828 454.309 579.55 454.309 584.993C454.309 590.406 451.663 593.112 446.369 593.112C441.233 593.112 438.545 590.406 438.306 584.993ZM446.19 572.673H449.772L447.088 575.582H444.572L446.19 572.673ZM472.654 576.94L465.612 593H462.412L455.673 576.94H459.211L464.186 589.238L469.15 576.94H472.654ZM485.563 576.94V579.501H477.522V583.544H485.181V586.206H477.488V590.417H485.72V593H474.569V576.94H485.563ZM491.678 576.94V593H488.702V576.94H491.678ZM495.008 592.326V589.631C496.617 590.23 498.437 590.529 500.466 590.529C502.929 590.529 504.16 589.706 504.16 588.059C504.16 586.861 503.404 586.262 501.892 586.262H499.376C496.089 586.262 494.446 584.764 494.446 581.77C494.446 578.475 496.786 576.828 501.465 576.828C503.262 576.828 504.965 577.09 506.575 577.614V580.31C504.965 579.711 503.262 579.411 501.465 579.411C498.77 579.411 497.422 580.197 497.422 581.77C497.422 582.967 498.073 583.566 499.376 583.566H501.892C505.388 583.566 507.136 585.064 507.136 588.059C507.136 591.428 504.913 593.112 500.466 593.112C498.437 593.112 496.617 592.85 495.008 592.326ZM517.704 584.925C517.704 588.661 519.362 590.529 522.679 590.529C525.913 590.529 527.53 588.661 527.53 584.925C527.53 581.249 525.913 579.411 522.679 579.411C519.362 579.411 517.704 581.249 517.704 584.925ZM514.615 584.993C514.615 579.55 517.303 576.828 522.679 576.828C527.972 576.828 530.619 579.55 530.619 584.993C530.619 590.406 527.972 593.112 522.679 593.112C517.543 593.112 514.855 590.406 514.615 584.993ZM533.668 593V576.94H536.644L545.123 588.643V576.94H547.987V593H545.01L536.531 581.051V593H533.668ZM554.573 576.94V590.417H560.952V593H551.597V576.94H554.573ZM566.977 576.94V593H564.001V576.94H566.977ZM570.587 593V576.94H573.563L582.042 588.643V576.94H584.906V593H581.93L573.451 581.051V593H570.587ZM599.511 576.94V579.501H591.47V583.544H599.129V586.206H591.436V590.417H599.668V593H588.516V576.94H599.511Z" fill="#474242"/>
</g>
<g clip-path="url(#clip0_30_2)">
<path d="M235 197L344 134.5V454.5L249.5 466L235 197Z" fill="#937F74"/>
<g filter="url(#filter3_d_30_2)">
<path fill-rule="evenodd" clip-rule="evenodd" d="M354.619 109.706C349.486 107.993 344.043 107.411 338.664 108C333.285 108.589 328.097 110.335 323.456 113.119L246.206 159.469C240.653 162.801 236.058 167.514 232.867 173.149C229.677 178.784 228 185.149 228 191.625L227.933 443.608V448.277V451.277C227.933 451.277 227.933 451.277 227.933 480.777H528C528 443.513 528 480.777 528 443.513V194.513C527.995 186.648 525.518 178.983 520.918 172.604C516.318 166.224 509.829 161.452 502.369 158.963L354.619 109.706ZM490.5 443.513V194.513L359.25 150.788V443.513H490.5ZM321.75 157.875L265.5 191.625V443.513H321.75V157.875Z" fill="#474242"/>
</g>
</g>
<defs>
<filter id="filter0_d_30_2" x="148.231" y="507.781" width="336.619" height="57.5605" filterUnits="userSpaceOnUse" color-interpolation-filters="sRGB">
<feFlood flood-opacity="0" result="BackgroundImageFix"/>
<feColorMatrix in="SourceAlpha" type="matrix" values="0 0 0 0 0 0 0 0 0 0 0 0 0 0 0 0 0 0 127 0" result="hardAlpha"/>
<feOffset dy="4"/>
<feGaussianBlur stdDeviation="2"/>
<feComposite in2="hardAlpha" operator="out"/>
<feColorMatrix type="matrix" values="0 0 0 0 0 0 0 0 0 0 0 0 0 0 0 0 0 0 0.25 0"/>
<feBlend mode="normal" in2="BackgroundImageFix" result="effect1_dropShadow_30_2"/>
<feBlend mode="normal" in="SourceGraphic" in2="effect1_dropShadow_30_2" result="shape"/>
</filter>
<filter id="filter1_d_30_2" x="490.796" y="507.781" width="111.664" height="57.5605" filterUnits="userSpaceOnUse" color-interpolation-filters="sRGB">
<feFlood flood-opacity="0" result="BackgroundImageFix"/>
<feColorMatrix in="SourceAlpha" type="matrix" values="0 0 0 0 0 0 0 0 0 0 0 0 0 0 0 0 0 0 127 0" result="hardAlpha"/>
<feOffset dy="4"/>
<feGaussianBlur stdDeviation="2"/>
<feComposite in2="hardAlpha" operator="out"/>
<feColorMatrix type="matrix" values="0 0 0 0 0 0 0 0 0 0 0 0 0 0 0 0 0 0 0.25 0"/>
<feBlend mode="normal" in2="BackgroundImageFix" result="effect1_dropShadow_30_2"/>
<feBlend mode="normal" in="SourceGraphic" in2="effect1_dropShadow_30_2" result="shape"/>
</filter>
<filter id="filter2_d_30_2" x="148.265" y="572.673" width="455.403" height="28.4395" filterUnits="userSpaceOnUse" color-interpolation-filters="sRGB">
<feFlood flood-opacity="0" result="BackgroundImageFix"/>
<feColorMatrix in="SourceAlpha" type="matrix" values="0 0 0 0 0 0 0 0 0 0 0 0 0 0 0 0 0 0 127 0" result="hardAlpha"/>
<feOffset dy="4"/>
<feGaussianBlur stdDeviation="2"/>
<feComposite in2="hardAlpha" operator="out"/>
<feColorMatrix type="matrix" values="0 0 0 0 0 0 0 0 0 0 0 0 0 0 0 0 0 0 0.25 0"/>
<feBlend mode="normal" in2="BackgroundImageFix" result="effect1_dropShadow_30_2"/>
<feBlend mode="normal" in="SourceGraphic" in2="effect1_dropShadow_30_2" result="shape"/>
</filter>
<filter id="filter3_d_30_2" x="223.933" y="107.777" width="308.067" height="381" filterUnits="userSpaceOnUse" color-interpolation-filters="sRGB">
<feFlood flood-opacity="0" result="BackgroundImageFix"/>
<feColorMatrix in="SourceAlpha" type="matrix" values="0 0 0 0 0 0 0 0 0 0 0 0 0 0 0 0 0 0 127 0" result="hardAlpha"/>
<feOffset dy="4"/>
<feGaussianBlur stdDeviation="2"/>
<feComposite in2="hardAlpha" operator="out"/>
<feColorMatrix type="matrix" values="0 0 0 0 0 0 0 0 0 0 0 0 0 0 0 0 0 0 0.25 0"/>
<feBlend mode="normal" in2="BackgroundImageFix" result="effect1_dropShadow_30_2"/>
<feBlend mode="normal" in="SourceGraphic" in2="effect1_dropShadow_30_2" result="shape"/>
</filter>
<clipPath id="clip0_30_2">
<rect width="450" height="450" fill="white" transform="translate(150 69)"/>
</clipPath>
</defs>
</svg>
