<svg width="1314" height="510" viewBox="0 0 1314 510" fill="none" xmlns="http://www.w3.org/2000/svg">
<rect width="1314" height="510" fill="#DCCCC3"/>
<g filter="url(#filter0_d_4_25)">
<path d="M108.598 204.316V330H85.3074V204.316H108.598ZM142.254 330V204.316H166.423L209.05 299.678L250.798 204.316H274.089V330H252.556V242.461L218.455 330H198.591L163.787 242.461V330H142.254ZM327.432 266.807C327.432 296.045 340.411 310.664 366.368 310.664C391.68 310.664 404.336 296.045 404.336 266.807C404.336 238.037 391.68 223.652 366.368 223.652C340.411 223.652 327.432 238.037 327.432 266.807ZM303.262 267.334C303.262 224.736 324.297 203.438 366.368 203.438C407.793 203.438 428.506 224.736 428.506 267.334C428.506 309.697 407.793 330.879 366.368 330.879C326.172 330.879 305.137 309.697 303.262 267.334ZM457.767 330V204.316H516.654C540.56 204.316 552.513 214.072 552.513 233.584C552.513 247.881 544.72 258.105 529.134 264.258C545.775 267.363 554.095 276.885 554.095 292.822C554.095 317.607 540.999 330 514.808 330H457.767ZM513.841 309.785C524.154 309.785 529.31 304.512 529.31 293.965C529.31 280.898 521.605 274.365 506.195 274.365H499.163V259.336C518.499 256.113 528.167 248.027 528.167 235.078C528.167 228.047 523.831 224.531 515.159 224.531H481.058V309.785H513.841ZM604.449 204.316V330H581.158V204.316H604.449ZM661.395 204.316V309.785H711.317V330H638.104V204.316H661.395ZM763.869 204.316V309.785H813.791V330H740.578V204.316H763.869ZM929.096 204.316V224.355H866.166V255.996H926.108V276.826H865.903V309.785H930.327V330H843.051V204.316H929.096Z" fill="#474242"/>
</g>
<g filter="url(#filter1_d_4_25)">
<path d="M986.146 266.807C986.146 296.045 999.125 310.664 1025.08 310.664C1050.39 310.664 1063.05 296.045 1063.05 266.807C1063.05 238.037 1050.39 223.652 1025.08 223.652C999.125 223.652 986.146 238.037 986.146 266.807ZM961.976 267.334C961.976 224.736 983.011 203.438 1025.08 203.438C1066.51 203.438 1087.22 224.736 1087.22 267.334C1087.22 309.697 1066.51 330.879 1025.08 330.879C984.886 330.879 963.851 309.697 961.976 267.334ZM1116.48 330V204.316H1139.77L1206.13 295.898V204.316H1228.54V330H1205.25L1138.89 236.484V330H1116.48Z" fill="#937F74"/>
</g>
<g filter="url(#filter2_d_4_25)">
<path d="M131.858 367.502L114.101 408H106.03L89.0374 367.502H97.9583L110.504 398.513L123.022 367.502H131.858ZM164.411 367.502V373.959H144.134V384.154H163.448V390.866H144.049V401.486H164.808V408H136.686V367.502H164.411ZM172.326 408V367.502H179.831L201.213 397.012V367.502H208.435V408H200.93L179.548 377.867V408H172.326ZM233.398 401.486C241.8 401.486 246.001 396.54 246.001 386.646C246.001 378.226 241.8 374.016 233.398 374.016H225.044V401.486H233.398ZM217.539 408V367.502H233.398C246.803 367.502 253.506 373.883 253.506 386.646C253.506 400.882 246.803 408 233.398 408H217.539ZM264.649 408H256.946L274.137 367.502H282.208L299.767 408H291.695L287.079 396.955H273.627L276.204 390.441H284.36L277.988 375.233L264.649 408ZM346.352 367.502V373.959H326.075V384.154H345.389V390.866H325.99V401.486H346.749V408H318.627V367.502H346.352ZM371.755 408H364.051L381.242 367.502H389.313L406.872 408H398.8L394.184 396.955H380.732L383.309 390.441H391.465L385.093 375.233L371.755 408ZM419.913 367.502V401.486H435.999V408H412.408V367.502H419.913ZM443.687 392.084V367.502H451.192V392.084C451.192 398.541 454.496 401.77 461.104 401.77C467.712 401.77 471.016 398.541 471.016 392.084V367.502H478.521V392.084C478.521 402.883 472.715 408.283 461.104 408.283C449.493 408.283 443.687 402.883 443.687 392.084ZM519.882 406.131C516.616 407.566 512.528 408.283 507.62 408.283C493.327 408.283 486.181 401.25 486.181 387.185C486.181 373.874 493.45 367.219 507.988 367.219C512.425 367.219 516.389 367.88 519.882 369.201V375.998C516.389 374.488 512.613 373.732 508.554 373.732C498.831 373.732 493.969 378.216 493.969 387.185C493.969 396.908 498.557 401.77 507.733 401.77C509.092 401.77 510.64 401.543 512.377 401.09V389.309H519.882V406.131ZM527.542 392.084V367.502H535.047V392.084C535.047 398.541 538.351 401.77 544.959 401.77C551.567 401.77 554.871 398.541 554.871 392.084V367.502H562.376V392.084C562.376 402.883 556.571 408.283 544.959 408.283C533.348 408.283 527.542 402.883 527.542 392.084ZM599.178 367.502V373.959H578.901V384.154H598.215V390.866H578.816V401.486H599.574V408H571.452V367.502H599.178ZM614.598 367.502V401.486H630.684V408H607.093V367.502H614.598ZM667.556 401.486C675.957 401.486 680.158 396.54 680.158 386.646C680.158 378.226 675.957 374.016 667.556 374.016H659.201V401.486H667.556ZM651.696 408V367.502H667.556C680.961 367.502 687.663 373.883 687.663 386.646C687.663 400.882 680.961 408 667.556 408H651.696ZM722.369 367.502V373.959H702.092V384.154H721.406V390.866H702.007V401.486H722.766V408H694.643V367.502H722.369ZM751.113 367.502V408H743.608V367.502H751.113ZM760.217 408V367.502H768.005L781.741 398.229L795.193 367.502H802.698V408H795.759V379.793L784.771 408H778.371L767.156 379.793V408H760.217ZM818.146 387.638C818.146 397.059 822.328 401.77 830.692 401.77C838.848 401.77 842.926 397.059 842.926 387.638C842.926 378.368 838.848 373.732 830.692 373.732C822.328 373.732 818.146 378.368 818.146 387.638ZM810.358 387.808C810.358 374.082 817.136 367.219 830.692 367.219C844.04 367.219 850.714 374.082 850.714 387.808C850.714 401.458 844.04 408.283 830.692 408.283C817.74 408.283 810.962 401.458 810.358 387.808ZM830.239 356.74H839.273L832.504 364.075H826.161L830.239 356.74ZM896.975 367.502L879.218 408H871.147L854.155 367.502H863.076L875.622 398.513L888.139 367.502H896.975ZM929.529 367.502V373.959H909.251V384.154H928.566V390.866H909.166V401.486H929.925V408H901.803V367.502H929.529ZM944.949 367.502V408H937.444V367.502H944.949ZM953.345 406.301V399.504C957.404 401.014 961.992 401.77 967.109 401.77C973.32 401.77 976.426 399.693 976.426 395.539C976.426 392.518 974.519 391.008 970.705 391.008H964.362C956.073 391.008 951.929 387.232 951.929 379.68C951.929 371.372 957.829 367.219 969.629 367.219C974.16 367.219 978.456 367.88 982.515 369.201V375.998C978.456 374.488 974.16 373.732 969.629 373.732C962.832 373.732 959.434 375.715 959.434 379.68C959.434 382.701 961.076 384.211 964.362 384.211H970.705C979.522 384.211 983.931 387.987 983.931 395.539C983.931 404.035 978.323 408.283 967.109 408.283C961.992 408.283 957.404 407.622 953.345 406.301ZM1010.58 387.638C1010.58 397.059 1014.76 401.77 1023.13 401.77C1031.28 401.77 1035.36 397.059 1035.36 387.638C1035.36 378.368 1031.28 373.732 1023.13 373.732C1014.76 373.732 1010.58 378.368 1010.58 387.638ZM1002.79 387.808C1002.79 374.082 1009.57 367.219 1023.13 367.219C1036.47 367.219 1043.15 374.082 1043.15 387.808C1043.15 401.458 1036.47 408.283 1023.13 408.283C1010.17 408.283 1003.4 401.458 1002.79 387.808ZM1050.84 408V367.502H1058.34L1079.72 397.012V367.502H1086.94V408H1079.44L1058.06 377.867V408H1050.84ZM1103.55 367.502V401.486H1119.64V408H1096.05V367.502H1103.55ZM1134.83 367.502V408H1127.33V367.502H1134.83ZM1143.94 408V367.502H1151.44L1172.82 397.012V367.502H1180.05V408H1172.54L1151.16 377.867V408H1143.94ZM1216.88 367.502V373.959H1196.6V384.154H1215.91V390.866H1196.51V401.486H1217.27V408H1189.15V367.502H1216.88Z" fill="#474242"/>
</g>
<defs>
<filter id="filter0_d_4_25" x="81.3074" y="203.438" width="853.019" height="135.441" filterUnits="userSpaceOnUse" color-interpolation-filters="sRGB">
<feFlood flood-opacity="0" result="BackgroundImageFix"/>
<feColorMatrix in="SourceAlpha" type="matrix" values="0 0 0 0 0 0 0 0 0 0 0 0 0 0 0 0 0 0 127 0" result="hardAlpha"/>
<feOffset dy="4"/>
<feGaussianBlur stdDeviation="2"/>
<feComposite in2="hardAlpha" operator="out"/>
<feColorMatrix type="matrix" values="0 0 0 0 0 0 0 0 0 0 0 0 0 0 0 0 0 0 0.25 0"/>
<feBlend mode="normal" in2="BackgroundImageFix" result="effect1_dropShadow_4_25"/>
<feBlend mode="normal" in="SourceGraphic" in2="effect1_dropShadow_4_25" result="shape"/>
</filter>
<filter id="filter1_d_4_25" x="957.976" y="203.438" width="274.565" height="135.441" filterUnits="userSpaceOnUse" color-interpolation-filters="sRGB">
<feFlood flood-opacity="0" result="BackgroundImageFix"/>
<feColorMatrix in="SourceAlpha" type="matrix" values="0 0 0 0 0 0 0 0 0 0 0 0 0 0 0 0 0 0 127 0" result="hardAlpha"/>
<feOffset dy="4"/>
<feGaussianBlur stdDeviation="2"/>
<feComposite in2="hardAlpha" operator="out"/>
<feColorMatrix type="matrix" values="0 0 0 0 0 0 0 0 0 0 0 0 0 0 0 0 0 0 0.25 0"/>
<feBlend mode="normal" in2="BackgroundImageFix" result="effect1_dropShadow_4_25"/>
<feBlend mode="normal" in="SourceGraphic" in2="effect1_dropShadow_4_25" result="shape"/>
</filter>
<filter id="filter2_d_4_25" x="85.0374" y="356.74" width="1136.23" height="59.543" filterUnits="userSpaceOnUse" color-interpolation-filters="sRGB">
<feFlood flood-opacity="0" result="BackgroundImageFix"/>
<feColorMatrix in="SourceAlpha" type="matrix" values="0 0 0 0 0 0 0 0 0 0 0 0 0 0 0 0 0 0 127 0" result="hardAlpha"/>
<feOffset dy="4"/>
<feGaussianBlur stdDeviation="2"/>
<feComposite in2="hardAlpha" operator="out"/>
<feColorMatrix type="matrix" values="0 0 0 0 0 0 0 0 0 0 0 0 0 0 0 0 0 0 0.25 0"/>
<feBlend mode="normal" in2="BackgroundImageFix" result="effect1_dropShadow_4_25"/>
<feBlend mode="normal" in="SourceGraphic" in2="effect1_dropShadow_4_25" result="shape"/>
</filter>
</defs>
</svg>
